<svg xmlns="http://www.w3.org/2000/svg" width="256" height="256"><path fill-opacity=".086" d="M0 128.004v128.004l128.25-.254 128.25-.254.254-127.75L257.008 0H0v128.004m.485.496c0 70.4.119 99.053.265 63.672.146-35.38.146-92.98 0-128C.604 29.153.485 58.1.485 128.5" fill="#1976D2" fill-rule="evenodd"/><path fill-opacity=".15" d="M0 128.004v128.004l128.25-.254 128.25-.254.254-127.75L257.008 0H0v128.004m.485.496c0 70.4.119 99.053.265 63.672.146-35.38.146-92.98 0-128C.604 29.153.485 58.1.485 128.5M165.5 69.564c-12.1 1.291-25.937 2.66-30.75 3.041-4.812.382-8.75 1.011-8.75 1.398s3.262 1.001 7.25 1.364c3.988.363 16.25 1.735 27.25 3.049l20 2.39 1.5-2.077c2.817-3.899 7.042-11.729 6.27-11.62-.423.059-10.67 1.165-22.77 2.455M34.362 82.765c-.776.501 1.039 5.035 5.698 14.235 3.759 7.425 6.859 13.145 6.888 12.71.028-.434-.839-2.537-1.929-4.673-1.404-2.751-1.634-3.999-.79-4.28.914-.305.895-1.541-.08-5.327-.699-2.711-1.243-6.008-1.209-7.326.034-1.318-.501-3.09-1.189-3.938-1.056-1.301-.971-1.435.551-.865 1.082.406 1.558.281 1.191-.312-.707-1.145-7.449-1.31-9.131-.224M95 96.5c0 2.111.467 2.5 3 2.5h3v15h7v-7.5c0-7.333.056-7.5 2.5-7.5 2 0 2.5-.5 2.5-2.5 0-2.481-.067-2.5-9-2.5s-9 .019-9 2.5m21 7.5v10h7.5c7.333 0 7.5-.056 7.5-2.5 0-2.333-.333-2.5-5-2.5-2.75 0-5-.45-5-1s1.8-1 4-1c3.6 0 4-.25 4-2.5 0-2.259-.394-2.5-4.083-2.5-5.806 0-4.592-2.413 1.411-2.805 4.206-.274 4.672-.549 4.672-2.75 0-2.376-.211-2.445-7.5-2.445H116v10m17 0v10h6v-6c0-4.562.346-6 1.443-6 2.284 0 4.557 4.101 4.557 8.223 0 3.362.275 3.777 2.5 3.777h2.5V94h-2.5c-1.51 0-2.5.571-2.5 1.441 0 1.252-.359 1.253-2.75.006-1.512-.789-4.213-1.437-6-1.441L133 94v10m23.195-7.511c-3.552 2.989-4.485 6.881-2.683 11.194 1.812 4.337 6.312 6.492 12.777 6.118 5.764-.334 6.413-1.247 5.258-7.401-.519-2.77-1.092-3.4-3.092-3.4-1.952 0-2.455.512-2.455 2.5 0 1.942-.513 2.5-2.3 2.5-4.396 0-6.222-4.335-3.129-7.429.865-.864 2.89-1.571 4.5-1.571 2.458 0 2.929-.402 2.929-2.5 0-2.29-.372-2.5-4.423-2.5-3.254 0-5.205.658-7.382 2.489m23.183-1.052c-3.49 1.519-6.378 5.067-6.378 7.835 0 9.438 14.944 13.938 22.198 6.684 8.531-8.531-3.728-19.782-15.82-14.519M201 121v23h7.928l.286-23.001.286-23.001-4.25.001L201 98v23m-18.777-20.443c-2.617 1.833-2.824 3.699-.652 5.872 3.144 3.143 9.429 1.429 9.429-2.572 0-1.748-3.521-4.857-5.5-4.857-.58 0-2.055.701-3.277 1.557M45.083 141.5V163H53v-18h7v18h8v-43h-8V136.127l-3.25-.314-3.25-.313-.292-7.75-.292-7.75h-7.833v21.5m32.829-18.406c-4.45 4.764-7.086 14.447-7.663 28.156L69.753 163H77v-4.5c0-4.476.019-4.5 3.5-4.5s3.5.024 3.5 4.5.019 4.5 3.5 4.5H91v-43h-5.099c-4.41 0-5.489.418-7.989 3.094M95 141.387V163h8v-16.083c0-12.417.285-15.991 1.25-15.676 2.699.879 3.66 5.558 3.808 18.548l.15 13.211H115.739l.455-13.407c.351-10.364.84-13.996 2.153-16 .935-1.426 2.139-2.593 2.676-2.593.595 0 .977 6.252.977 16v16h8v-43h-6.389c-4.814 0-6.972.473-8.75 1.92-2.196 1.785-2.489 1.805-4.184.278-1.201-1.081-4.188-1.775-8.75-2.032L95 119.774v21.613m38 .113V163h6.865c5.312 0 7.431-.445 9.365-1.966 3.689-2.902 5.151-7.234 4.319-12.801-.923-6.182-.929-7.987-.043-12.427 1.047-5.244-.133-10.161-3.167-13.194-2.343-2.343-3.37-2.612-9.975-2.612H133v21.5m23 0V163h7v-4.941c0-8.099 4.05-7.716 6.139.581 1.036 4.113 1.298 4.36 4.62 4.36h3.521l-.558-5.404c-.307-2.972-1.188-6.608-1.959-8.079-1.23-2.347-1.182-3.311.385-7.846 2.188-6.333 2.286-9.697.412-14.181-2.058-4.925-6.774-7.482-13.81-7.486L156 120v21.5m24 0V163h18v-11h-11v-3.5c0-3.344.159-3.5 3.555-3.5h3.555l-.305-4.75c-.292-4.555-.439-4.763-3.555-5.063-2.975-.287-3.25-.604-3.25-3.75V128h11v-8h-18v21.5m-40-8.066c0 3.84 1.322 4.513 4.418 2.25 2.621-1.917 1.646-5.117-1.677-5.5-2.535-.293-2.741-.049-2.741 3.25m23 1.399c0 5.335.475 6.306 2.674 5.462 3.967-1.522 3.413-10.295-.649-10.295-1.754 0-2.025.647-2.025 4.833m-82.246.917c-1.748 1.967-3.86 8.81-2.988 9.683.312.312 1.842.567 3.401.567 2.796 0 2.833-.078 2.833-6 0-6.285-.664-7.154-3.246-4.25M140 149.5c0 3.551.999 4.205 4.418 2.893 3.23-1.239 1.12-6.393-2.618-6.393-1.39 0-1.8.796-1.8 3.5m62.035 1.434c-1.505 2.813-1.268 7.288.522 9.843 3.122 4.458 6.443 1.617 6.443-5.511 0-2.126-.54-4.406-1.2-5.066-1.802-1.802-4.598-1.446-5.765.734M96.711 210.852c1.557 3.494 3.235 6.349 3.728 6.345.494-.005 2.383-2.653 4.199-5.887l3.302-5.878-5.982.572c-3.585.343-6.402.156-7.03-.466-.576-.571.227 1.821 1.783 5.314" fill="#1976D2" fill-rule="evenodd"/><path fill-opacity=".546" d="M0 128.004v128.004l128.25-.254 128.25-.254.254-127.75L257.008 0H0v128.004m.485.496c0 70.4.119 99.053.265 63.672.146-35.38.146-92.98 0-128C.604 29.153.485 58.1.485 128.5M50 51.512c0 14.069.16 15.492 1.75 15.528.962.022 10.75 1.106 21.75 2.41 17.86 2.117 21.834 2.354 20.417 1.215-.229-.184-10.204-8.053-22.167-17.488L50 36.024v15.488m100.5 18.97c-17.05 1.774-30.325 3.469-29.5 3.767 2.101.759 59.97 7.133 60.353 6.648 1.081-1.37 7.647-12.771 7.647-13.278 0-.98-5.475-.573-38.5 2.863M36.272 81.731l-4.228.382 7.626 15.193C48.375 114.65 49.824 119 46.895 119 45.093 119 45 120.074 45 141v22h4.5c2.475 0 4.447-.338 4.382-.75-.066-.412-.066-4.463 0-9L54 145h6v18h8v-44h-2.5c-1.586 0-2.5-.564-2.5-1.543 0-.848-1.968-3.661-4.373-6.25-4.963-5.343-7.66-10.263-9.979-18.207-1.912-6.548-5.125-12.068-6.883-11.825-.696.096-3.168.346-5.493.556m13.955 8.019c.845 11.5 7.953 22.443 15.497 23.858 6.544 1.228 6.038-.628-4.364-16.011-5.423-8.02-10.258-14.585-10.744-14.589-.487-.004-.662 3.029-.389 6.742m27.386 5.208C73.976 101.123 71 106.531 71 106.976c0 1.81 3.445 1.948 6.344.255 4.088-2.387 8.661-11.171 8.641-16.595-.031-8.221-1.384-7.522-8.372 4.322M95 97c0 2.667.333 3 3 3h3v14h7v-6.934c0-6.82.045-6.938 2.75-7.25 2.16-.248 2.818-.906 3.066-3.066l.317-2.75H95v3m21 7v10h7.5c7.333 0 7.5-.056 7.5-2.5 0-2.296-.367-2.5-4.5-2.5-2.475 0-4.5-.45-4.5-1s1.575-1 3.5-1c3.067 0 3.5-.31 3.5-2.5s-.433-2.5-3.5-2.5c-1.925 0-3.5-.45-3.5-1s2.025-1 4.5-1c4.333 0 4.5-.111 4.5-3v-3h-15v10m17-.101V114H139.905l.297-6.186c.284-5.894.38-6.103 2.048-4.428 1.139 1.143 1.75 3.304 1.75 6.185 0 4.395.027 4.429 3.5 4.429h3.5V94h-3.559c-2.463 0-3.336.36-2.836 1.17.515.833.172.928-1.191.33-1.053-.462-3.826-1.034-6.164-1.271l-4.25-.43v10.1m23.75-8.819c-2.329 1.357-4.75 6.183-4.75 9.47 0 1.68 1.244 3.894 3.4 6.05 3.18 3.18 3.827 3.4 10 3.4h6.6V102.873l-3.25.314c-2.491.24-3.325.838-3.57 2.563-.404 2.849-3.704 3.009-5.18.25-1.984-3.706 2.308-7.845 7.064-6.812.923.201 1.549-.67 1.752-2.438.311-2.698.216-2.749-5-2.72-2.924.017-6.104.489-7.066 1.05m19.785 2.024C173.883 99.432 173 101 173 103.381c0 11.549 19.419 14.685 24.509 3.958 3.335-7.027-2.441-13.328-12.224-13.335-4.41-.003-5.761.475-8.75 3.1M201 121.5V145h9V98h-9v23.5m-18.837-20.622c-1.721 1.091-1.135 5.122.932 6.417 3.978 2.492 9.724-2.399 6.865-5.843-1.321-1.591-5.685-1.912-7.797-.574m-128.337 26.12.326 8.002H60l-.201-8.25-.201-8.25-.341 7.75c-.304 6.912-.553 7.75-2.299 7.75-1.77 0-1.958-.72-1.958-7.5 0-4.125-.337-7.501-.75-7.502-.413-.002-.603 3.598-.424 8m25.776-5.899c-2.773 2.18-7.504 10.513-7.734 13.618-.072.981-.425.208-.784-1.717-.359-1.925-.763 4.037-.899 13.25L69.939 163H78v-4.5c0-4.133.204-4.5 2.5-4.5s2.5.367 2.5 4.5v4.5h8v-44h-4.365c-2.919 0-5.249.695-7.033 2.099M95 141v22h8v-16c0-16.61.746-19.245 3.551-12.532 1.004 2.402 1.449 7.319 1.449 16V163h9v-12.532c0-9.852.374-13.327 1.75-16.25l1.75-3.718.275 16.25.275 16.25H130v-44.274l-6.548.526c-4.189.336-7.235 1.147-8.453 2.249-1.807 1.635-2.127 1.615-6.267-.389-2.537-1.228-6.324-2.112-9.048-2.112H95v22m38 0v22h7.277c11.126 0 14.414-3.613 13.365-14.689-.712-7.524-.708-6.789-.078-14.311.455-5.437.208-7.036-1.51-9.775-2.541-4.049-5.493-5.225-13.119-5.225H133v22m23 0v22h8l.032-5.75.031-5.75 2.469 2.806c1.43 1.626 2.468 4.044 2.468 5.75 0 2.768.239 2.944 4 2.944h4v-5.05c0-2.777-.705-6.413-1.567-8.079-1.422-2.751-1.422-3.454 0-7.629.862-2.529 1.567-6.734 1.567-9.343 0-8.195-6.758-13.899-16.468-13.899H156v22m24 0v22h18v-12h-5.566c-5.483 0-5.562-.041-5.25-2.75.263-2.291.858-2.802 3.566-3.063 3.185-.307 3.25-.412 3.25-5.25V135h-3.5c-3.222 0-3.5-.238-3.5-3 0-2.97.056-3 5.5-3h5.5v-10h-18v22m-40-8c0 2.268.458 3 1.878 3 1.032 0 2.437-.675 3.122-1.5 1.558-1.877-.263-4.5-3.122-4.5-1.42 0-1.878.732-1.878 3m24 2c0 5.08.645 5.955 2.8 3.8 2.35-2.35.884-8.8-2-8.8-.44 0-.8 2.25-.8 5m-84.551 3.468C77.347 143.499 77.588 145 80.5 145c2.333 0 2.5-.333 2.5-5 0-5.846-1.481-6.485-3.551-1.532m96.766 5.183c-.888 2.895-.828 4.189.292 6.25 1.346 2.475 1.415 2.302 1.453-3.651.022-3.437-.109-6.25-.292-6.25s-.837 1.643-1.453 3.651M55 156v9h-4.2c-2.616 0-3.842.353-3.25.935.522.514 10.287 1.256 21.7 1.648 18.894.649 20.75.566 20.75-.935 0-1.256-.951-1.648-4-1.648h-4v-4.5c0-3.333-.389-4.5-1.5-4.5s-1.5 1.167-1.5 4.5v4.5H59v-9c0-8.333-.148-9-2-9s-2 .667-2 9m85.184-6.25c.243 2.119.775 2.673 2.316 2.416 2.773-.462 3.677-1.542 2.926-3.499-.357-.931-1.726-1.667-3.099-1.667-2.093 0-2.413.41-2.143 2.75M188 148.5c0 .952.958 1.5 2.622 1.5 2.218 0 2.431-.232 1.378-1.5-.685-.825-1.865-1.5-2.622-1.5-.758 0-1.378.675-1.378 1.5m14.655 1.329c-1.857 2.052-2.201 8.283-.62 11.237 2.371 4.429 7.965.519 7.965-5.566 0-3.392-2.411-7.5-4.402-7.5-.708 0-2.033.823-2.943 1.829m-37.574 9.921L165 165h-5.031c-3.549 0-5.201-.442-5.607-1.499-.461-1.2-.953-1.019-2.469.908-1.041 1.323-1.893 2.673-1.893 2.999 0 1.282 25.499.502 28.5-.872 2.906-1.331 2.789-1.376-3.75-1.455-6.295-.076-6.753-.233-6.795-2.331-.025-1.238-.663-3.6-1.419-5.25l-1.374-3-.081 5.25m-120.19 9.047c3.599 6.724 20.35 10.96 52.609 13.302 17.728 1.287 58.999.661 74.5-1.131 22.618-2.614 38-8.008 38-13.327 0-.107-4.838.175-10.75.627-13.914 1.064-151.166.435-153.616-.704-1.654-.769-1.739-.628-.743 1.233m1.769 20.953c-.927 22.34-.835 29.25.387 29.25.576 0 10.533-3.825 22.127-8.5s21.417-8.5 21.828-8.5c.412 0 2.584 3.825 4.827 8.5s4.285 8.5 4.537 8.5c.253 0 2.55-3.626 5.106-8.057l4.648-8.057-4.665-8.693c-2.566-4.781-5.015-9.068-5.442-9.525-.428-.458-5.893-1.266-12.145-1.796-13.628-1.155-29.723-4.28-35.745-6.939-2.408-1.063-4.475-1.933-4.594-1.933-.119 0-.51 7.088-.869 15.75" fill="#1976D2" fill-rule="evenodd"/><path fill-opacity=".388" d="M48.193 60.537 48 66.574 42 66c-3.85-.368-5.992-.202-5.978.463.012.57 2.877 6.112 6.368 12.314l6.346 11.277.644-4.027c.354-2.215.976-4.011 1.382-3.992.406.019 4.563 5.724 9.238 12.678 13.663 20.324 12.437 17.983 10.08 19.244-1.53.819-2.895.729-5.507-.362l-3.472-1.451 1.635 3.428c.975 2.044 2.367 3.428 3.449 3.428 1.7 0 1.815 1.436 1.815 22.601v22.6l-4.5-.358c-2.475-.196-4.5-.017-4.5.4 0 .416 4.5.757 10 .757h10v-4.5c0-3.833.296-4.5 2-4.5 1.1 0 2-.45 2-1s-1.125-1-2.5-1c-2.337 0-2.5.33-2.5 5.057v5.058l-4.25-.308-4.25-.307-.083-16.5c-.081-16.22.295-20.173 1.573-16.529.516 1.472 1.254.758 3.703-3.581 3.624-6.421 6.373-8.134 12.366-7.707l4.441.317v44h-4.251c-2.339 0-4.251.338-4.25.75 0 .412 1.59.75 3.532.75 2.217 0 3.746.559 4.107 1.5.493 1.285 4.652 1.5 28.956 1.5h28.379l3.486-3.75c3.183-3.423 3.489-3.554 3.514-1.5.024 1.992.537 2.25 4.468 2.25 2.443 0 4.65-.338 4.905-.75.254-.412-1.519-.592-3.941-.399l-4.405.35V119h5.852c6.956 0 11.681 2.63 14.409 8.02 1.507 2.977 1.724 5.864 1.5 19.98l-.261 16.5-3.758.311c-3.865.319-4.043.152-5.115-4.811-.701-3.246-3.25-6.71-4.222-5.738-.418.417.026 1.332.984 2.033.959.702 1.998 3.172 2.309 5.49l.565 4.215h9.869c5.965 0 9.868.399 9.868 1.008 0 .555-2.027.931-4.504.838-2.478-.094-4.803.127-5.167.492-.364.364 4.925.586 11.754.494 6.829-.093 10.73-.345 8.667-.56-3.802-.398-5.334-2.272-1.857-2.272 1.041 0 2.165-.708 2.497-1.574.55-1.433.746-1.433 2.179 0 .865.866 2.372 1.574 3.347 1.574 2.02 0 5.747-3.671 4.745-4.673-.364-.363-.661-.151-.661.471s-.937 1.633-2.083 2.247c-4.574 2.447-8.195-5.051-5.525-11.441.828-1.982 1.155-3.604.726-3.604-1.543 0-3.085 4.604-3.349 10l-.269 5.5h-19l-.269-22.25-.269-22.25H199v10h-5.932c-5.874 0-5.929.027-5.644 2.75.249 2.376.783 2.792 3.932 3.06 2.004.171 3.644.809 3.644 1.417s.289.817.643.464c.353-.354.102-1.293-.558-2.088-.993-1.197-.845-1.353.858-.908 1.131.296 2.057.069 2.057-.505 0-.574-.787-1.207-1.75-1.407-1.423-.296-1.33-.479.5-.98 2.204-.603 2.25-.443 2.25 7.791 0 9.282-.187 9.07 7.5 8.475 5.706-.441 5.063-2.069-.818-2.069h-5.718l.268-23.75.268-23.75 4.401-.315c2.447-.175 4.701.17 5.076.778.402.65 2.788-1.337 5.892-4.906 6.147-7.067 7.209-6.336-12.369-8.51-7.15-.795-28.075-3.23-46.5-5.412s-40.7-4.689-49.5-5.571c-26.975-2.705-53.884-5.634-56.202-6.118-1.936-.405-2.246-1.216-2.558-6.703l-.355-6.243-.192 6.037m35.54 1.587c.679.684 1.486.991 1.793.683.308-.308-.247-.867-1.233-1.243-1.425-.542-1.54-.428-.56.56m-7.051 33.394c-3.722 6.345-6.496 11.974-6.165 12.509 1.363 2.206 5.802.89 9.513-2.822 4.516-4.516 7.675-13.591 6.234-17.912-.489-1.468-1.322-2.812-1.852-2.989-.53-.177-4.008 4.87-7.73 11.214M95 96.5c0 3.067.31 3.5 2.5 3.5 2.429 0 2.5.2 2.5 7v7h8v-14h3c2.762 0 3-.278 3-3.5V93H95v3.5m20.667-2.833c-.367.366-.667 5.091-.667 10.5V114h8c7.867 0 8-.042 8-2.5 0-2.296-.367-2.5-4.5-2.5-2.475 0-4.5-.45-4.5-1s1.83-1 4.066-1c3.847 0 4.05-.149 3.75-2.75-.272-2.365-.876-2.835-4.316-3.358l-4-.608 4.75-.142c4.735-.142 4.75-.153 4.75-3.642V93h-7.333c-4.034 0-7.634.3-8 .667M133 103.372V114h7v-6.155c0-6.092.021-6.136 2-4.345 1.415 1.281 2 3.08 2 6.155 0 4.299.037 4.345 3.5 4.345h3.5V93h-3.5c-2.562 0-3.5.435-3.5 1.622 0 1.218-.324 1.354-1.3.544-.714-.593-3.189-1.381-5.5-1.75l-4.2-.672v10.628m25.388-9.392c-5.229 2.113-7.861 9.271-5.271 14.336 2.222 4.345 4.994 5.638 12.133 5.662L172 114l.063-4.75c.047-3.491.283-4.22.891-2.75 1.673 4.045 5.796 6.77 11.002 7.27 5.855.562 10.27-.97 13.078-4.54 5.862-7.453-3.165-17.566-14.04-15.729-4.268.721-9.994 5.248-9.994 7.9 0 1.199-1.001 1.599-4 1.599-3.333 0-4 .333-4 2 0 1.48-.667 2-2.563 2-2.29 0-2.53-.347-2.25-3.25.294-3.051.574-3.269 4.563-3.557 4.117-.298 4.25-.415 4.25-3.75 0-3.394-.061-3.442-4.25-3.38-2.338.035-5.2.448-6.362.917m23.812 7.22c-1.909 1.909-1.395 4.792 1.013 5.683 2.905 1.075 5.617.303 6.817-1.938 1.915-3.579-4.789-6.786-7.83-3.745m31.145.343c-.326.849-.369 1.767-.096 2.04.274.273.737-.422 1.03-1.543.624-2.383-.069-2.751-.934-.497m-172.781.75c.376.986.935 1.541 1.243 1.233.308-.307.001-1.114-.683-1.793-.988-.98-1.102-.865-.56.56M57 109.5c1.292 1.375 2.574 2.5 2.849 2.5.275 0-.557-1.125-1.849-2.5-1.292-1.375-2.574-2.5-2.849-2.5-.275 0 .557 1.125 1.849 2.5m-12.442 9.407c-.309.498.34.671 1.441.383 2.335-.611 2.63-1.29.56-1.29-.793 0-1.693.408-2.001.907M54.349 127c0 4.675.173 6.588.383 4.25.211-2.338.211-6.163 0-8.5-.21-2.338-.383-.425-.383 4.25m40.099-6.724c-.27.702-.368 10.714-.219 22.25L94.5 163.5h9l.5-16c.46-14.726.618-15.801 1.984-13.5 1.061 1.787 1.587 6.423 1.846 16.25l.362 13.75H117v-12.532c0-9.852.374-13.327 1.75-16.25l1.75-3.718.5 16 .5 16 4.25.307 4.25.308V119l-5.75.005c-3.796.004-6.77.626-8.75 1.83-2.904 1.767-3.096 1.767-6-.001-3.6-2.192-14.274-2.588-15.052-.558M133 141.609v22.61l7.437-.376c6.185-.312 7.87-.782 10.011-2.794 3.608-3.39 4.943-9 3.614-15.194-.756-3.528-.751-6.203.017-9.255 1.461-5.802-.164-11.652-4.175-15.027-2.64-2.222-4.002-2.573-9.981-2.573H133v22.609m31-6.578c0 5.244 1.185 6.361 3.05 2.876 1.359-2.54.525-6.472-1.541-7.265-1.22-.469-1.509.371-1.509 4.389m-23.613-1.781c.103 2.055.653 2.344 3.613 1.9.55-.083 1-1.05 1-2.15 0-1.436-.667-2-2.363-2-1.818 0-2.338.519-2.25 2.25m-59.796 4c-.801 1.238-1.76 3.488-2.132 5-.607 2.47-.41 2.75 1.933 2.75 2.463 0 2.608-.278 2.608-5 0-2.75-.215-5-.477-5s-1.132 1.012-1.932 2.25m114.313 4.25c-.385 3.808-.596 4.029-4.404 4.608-3.595.547-3.696.635-1 .869 1.65.143 3.338.207 3.75.141.412-.065.697.22.632.632-.364 2.304.38 3.25 2.559 3.25 2.987 0 4.368-1.909 2.462-3.402-.847-.663-1.276-2.427-1.082-4.451.196-2.041-.068-3.112-.674-2.738-.548.339-1.185-.178-1.417-1.147-.232-.969-.603.038-.826 2.238m-153.091-.817c.721.289 1.584.253 1.916-.079.332-.332-.258-.568-1.312-.525-1.165.048-1.402.285-.604.604m11.975 13.567-.288 9.25h-4.752c-2.613 0-4.751.338-4.75.75.001.412 2.477.75 5.502.75H55v-9c0-8.73.304-9.584 3.25-9.118.413.065.75-.332.75-.882s-1.108-1-2.462-1c-2.419 0-2.468.165-2.75 9.25m86.612-4.793c0 2.009.498 2.543 2.37 2.543 1.885 0 2.304-.46 2.05-2.25-.195-1.369-1.123-2.365-2.37-2.543-1.606-.23-2.05.257-2.05 2.25M164.232 159c0 1.925.206 2.713.457 1.75.252-.963.252-2.537 0-3.5-.251-.963-.457-.175-.457 1.75M43 167.878c0 1.032.67 2.433 1.489 3.113.819.68 1.212 1.684.873 2.232-.338.547-.553 3.871-.476 7.386.076 3.515-.28 6.391-.791 6.391-.51 0-1.108-.54-1.328-1.199-.25-.751-.644-.563-1.052.5-.475 1.238-.127 1.699 1.28 1.699 1.756 0 1.963.893 2.259 9.75.206 6.139.405 3.322.537-7.607.193-16.064.339-17.309 1.959-16.706 1.081.401.699-.338-1-1.934-3.192-2.999-3.437-4.177-1-4.814 1.317-.344 1.193-.486-.5-.573-1.576-.081-2.25.447-2.25 1.762m165.276-1.01c2.667.607 2.714.722 1.184 2.895-3.3 4.692-12.649 7.93-31.332 10.855-7.512 1.176-20.505 1.842-44.315 2.273l-33.688.609 5.44 9.894c4.561 8.295 5.238 10.154 4.188 11.5-1.111 1.424-1.055 1.451.497.234 1.512-1.186 1.75-1.152 1.75.25 0 2.017 1.866 2.136 2.621.167.307-.8 2.993-2.163 5.969-3.028 2.975-.865 5.41-1.833 5.41-2.152 0-.318-.562-.368-1.25-.11-.687.257-2.023.192-2.968-.145-1.439-.514-.951-1.469 3-5.882l4.718-5.269 8.5-.591c4.675-.326 8.65-.991 8.833-1.48.184-.488.801-.888 1.373-.888.656 0 .608.52-.132 1.411-.854 1.029-.869 1.597-.056 2.1 1.331.823 1.534.637 2.399-2.18.49-1.595.193-2.291-1.125-2.634-.986-.256.964-.517 4.333-.581 3.369-.064 7.531-.397 9.25-.741 2.716-.543 3.125-.347 3.125 1.5 0 2.411 1.506 2.855 2.337.69.303-.79.013-1.654-.643-1.921-.657-.268.106-.522 1.696-.565 1.655-.045 3.457.669 4.218 1.671 1.238 1.631 1.331 1.606 1.36-.363.028-1.861.955-2.255 7.782-3.306 14.757-2.271 25.946-6.937 28.135-11.731 1.203-2.636.553-3.385-2.802-3.232l-2.583.119 2.776.631M54.5 176.536c1.65.756 3.675 1.36 4.5 1.343.825-.017-.075-.638-2-1.379-4.566-1.758-6.362-1.732-2.5.036m7.313 2.147c.721.289 1.584.253 1.916-.079.332-.332-.258-.568-1.312-.525-1.165.048-1.402.285-.604.604m4.937.979c.688.278 1.813.278 2.5 0 .688-.277.125-.504-1.25-.504s-1.937.227-1.25.504m5.519 1.031c.973.254 2.323.237 3-.037.677-.274-.119-.481-1.769-.461-1.65.02-2.204.244-1.231.498m6.981.996c.963.252 2.537.252 3.5 0 .963-.251.175-.457-1.75-.457s-2.713.206-1.75.457m109.75.87c0 .857.45 1.281 1 .941.55-.34 1-1.041 1-1.559s-.45-.941-1-.941-1 .702-1 1.559m-99.75.157c1.513.229 3.987.229 5.5 0s.275-.416-2.75-.416-4.263.187-2.75.416m51.5 1.946c.688.278 1.813.278 2.5 0 .688-.277.125-.504-1.25-.504s-1.937.227-1.25.504m-66.31 24.21c-8.832 3.646-17.157 7.138-18.5 7.761l-2.44 1.133 2.654-.133c1.46-.073 2.446-.471 2.191-.883-.255-.412.265-.75 1.155-.75.928 0 1.326.472.934 1.107-.461.745.011.887 1.441.433 1.55-.492 2.125-.25 2.125.893 0 2.24 1.748 1.938 2.5-.433.855-2.693 2.472-2.539 2.618.25.065 1.238.564.113 1.108-2.5l.99-4.75 7.642-.07c4.203-.039 8.542-.457 9.642-.93 1.63-.701 1.688-.872.309-.93-.93-.038-1.929-.455-2.22-.926-.291-.47.583-.643 1.941-.383 1.552.297 2.47.011 2.47-.767 0-.965.318-.975 1.441-.043 1.239 1.028 1.278.766.281-1.878-.638-1.69-1.399-3.018-1.691-2.951-.292.068-7.758 3.105-16.591 6.75M118 206c0 .55.477 1 1.059 1s.781-.45.441-1-.816-1-1.059-1-.441.45-.441 1m-73.5 4c-.34.55-.141 1 .441 1S46 210.55 46 210s-.198-1-.441-1-.719.45-1.059 1m49.5-.059c0 .518.445 1.216.989 1.552.566.35.734-.051.393-.941-.665-1.732-1.382-2.049-1.382-.611M15.5 248c-.34.55-.141 1 .441 1S17 248.55 17 248s-.198-1-.441-1-.719.45-1.059 1" fill="#1976D2" fill-rule="evenodd"/></svg>